<svg xmlns="http://www.w3.org/2000/svg" viewBox="0 0 169.21 391.15"><defs><style>.cls-1{fill:#11100f;}.cls-2{fill:#e1b623;}.cls-3{fill:#e0b522;}</style></defs><g id="katman_2" data-name="katman 2"><g id="katman_1-2" data-name="katman 1"><path class="cls-1" d="M66.8,293.5v-126l2.82.55V293Zm36.88-.14V167.11l2.82-.71V294Zm-41-126.88,2.81.69V293.52l-2.81.67Zm35.59,1.7V292.74l-2.81-.37V168.6l-1.28.16V292.25L91.39,292V169l-1.29.1V291.84l-2.81-.12V169.26l-1.28,0V291.64H83.19V169.3l-1.28,0V291.85L79.1,292V169.15l-1.28-.1V292.13L75,292.4V168.78l-1.28-.15V292.52l-2.81.38V168.23l2.81.4,1.28.15,2.82.27,1.28.1,2.81.12,1.28,0h1.28l1.54,0,1.28,0,2.81-.13,1.29-.1,2.82-.27,1.28-.16Zm1.29-.22,2.81-.56V293.34l-2.81-.52Z"/><path class="cls-1" d="M122.26,160.37V284.86l-14.08,9.34V165.87a85,85,0,0,1-47.18,0V294.2l-14.07-9.34V160.37a84.61,84.61,0,1,1,75.32,0M84.6,39.56a64.63,64.63,0,0,1,61.07,85.67,73.34,73.34,0,1,0-122.13,0A64.61,64.61,0,0,1,84.6,39.56m-.24,117.92a30.83,30.83,0,1,0-30.59-30.83,30.92,30.92,0,0,0,30.59,30.83M84.6,50.82a53.33,53.33,0,0,0-40.18,88.4,42.08,42.08,0,1,1,80.36,0A53.33,53.33,0,0,0,84.6,50.82"/><path class="cls-2" d="M65.57,267.3V267a.55.55,0,0,0,.57-.66v-9.15H63.41a.68.68,0,0,0-.47.13.86.86,0,0,0-.21.45h-.31v-3.1h.31a.67.67,0,0,0,.17.44.81.81,0,0,0,.51.12h7.85a.72.72,0,0,0,.46-.13.9.9,0,0,0,.22-.47h.32v3.11h-.32a.9.9,0,0,0-.2-.44.8.8,0,0,0-.48-.11H68.43v9.15a.77.77,0,0,0,.1.49A.8.8,0,0,0,69,267v.33Z"/><path class="cls-2" d="M76.08,265.39h1.19a4.46,4.46,0,0,0,3.22-.95,6,6,0,0,0,0-6.4,4.08,4.08,0,0,0-3.06-1H76.08ZM73.2,267.3V267a.76.76,0,0,0,.46-.19.8.8,0,0,0,.12-.47V256.2a.76.76,0,0,0-.11-.46,1,1,0,0,0-.47-.22v-.32h4.33a13.78,13.78,0,0,1,2.37.16,4.45,4.45,0,0,1,1.45.55A5,5,0,0,1,83.16,258a7.37,7.37,0,0,1,.63,3.15,6.23,6.23,0,0,1-1.57,4.61,6.46,6.46,0,0,1-4.69,1.54Z"/><path class="cls-2" d="M85.7,267.3V267a.7.7,0,0,0,.45-.19.73.73,0,0,0,.13-.47V256.2a.76.76,0,0,0-.11-.46,1,1,0,0,0-.47-.22v-.32h7.89a.69.69,0,0,0,.44-.11.88.88,0,0,0,.22-.49h.32v3.06h-.32a.94.94,0,0,0-.2-.46.67.67,0,0,0-.46-.13h-5v3h2.93A.75.75,0,0,0,92,260a.82.82,0,0,0,.2-.46h.32v3h-.32a.94.94,0,0,0-.2-.46.79.79,0,0,0-.47-.11H88.58v3.41h5.21a.67.67,0,0,0,.44-.11.93.93,0,0,0,.22-.5h.33v3.09h-.33a.71.71,0,0,0-.2-.46.66.66,0,0,0-.46-.11Z"/><path class="cls-2" d="M99.09,265.39h1.18a4.47,4.47,0,0,0,3.23-.95,6,6,0,0,0,0-6.4,4.08,4.08,0,0,0-3.06-1H99.09Zm-2.88,1.91V267a.76.76,0,0,0,.46-.19.8.8,0,0,0,.12-.47V256.2a.76.76,0,0,0-.11-.46,1,1,0,0,0-.47-.22v-.32h4.33a13.86,13.86,0,0,1,2.37.16,4.31,4.31,0,0,1,1.44.55,5,5,0,0,1,1.82,2.09,7.37,7.37,0,0,1,.63,3.15,6.23,6.23,0,0,1-1.57,4.61,6.46,6.46,0,0,1-4.69,1.54Z"/><path class="cls-2" d="M67.8,277.45a4.08,4.08,0,0,1,.45-1.91,5.31,5.31,0,0,1,1.41-1.65,9.28,9.28,0,0,1,1.12-.83c.93-.63,1.39-1.18,1.39-1.67a.94.94,0,0,0-.33-.77,1.27,1.27,0,0,0-.89-.28,2.11,2.11,0,0,0-1.26.41c-.41.28-.6.56-.6.83a.22.22,0,0,0,0,.08l.05.13,0,.07L69,272l-1.37-1.39.17-.16.1,0h0c.11,0,.29-.11.52-.34l.36-.34a3.27,3.27,0,0,1,1.06-.59,4.3,4.3,0,0,1,1.28-.19,2.53,2.53,0,0,1,1.77.62,2.05,2.05,0,0,1,.68,1.61c0,.9-.7,1.82-2.09,2.75l-.45.32c-.25.16-.45.32-.63.45l-.47.41a1.65,1.65,0,0,0-.47.62h3.8a.56.56,0,0,0,.31-.07.7.7,0,0,0,.13-.31H74v2h-.23a.41.41,0,0,0-.12-.23.57.57,0,0,0-.32-.06H68.47a.6.6,0,0,0-.32.06.57.57,0,0,0-.14.23Z"/><path class="cls-2" d="M78.36,273.17a3.65,3.65,0,0,0,.5,2,1.47,1.47,0,0,0,2.58,0,3.83,3.83,0,0,0,.48-2,3.77,3.77,0,0,0-.49-2.05,1.46,1.46,0,0,0-1.28-.77,1.49,1.49,0,0,0-1.29.79,3.74,3.74,0,0,0-.5,2m-1.49,0a4.62,4.62,0,0,1,.91-3,3,3,0,0,1,4.74,0,4.57,4.57,0,0,1,.93,3,4.71,4.71,0,0,1-.92,3,2.92,2.92,0,0,1-2.38,1.13,2.89,2.89,0,0,1-2.37-1.13,4.61,4.61,0,0,1-.91-3"/><path class="cls-2" d="M87.5,273.17a3.73,3.73,0,0,0,.49,2,1.52,1.52,0,0,0,1.3.76,1.5,1.5,0,0,0,1.29-.76,3.83,3.83,0,0,0,.48-2,3.77,3.77,0,0,0-.49-2.05,1.46,1.46,0,0,0-1.28-.77,1.48,1.48,0,0,0-1.29.79,3.66,3.66,0,0,0-.5,2m-1.5,0a4.62,4.62,0,0,1,.92-3,3,3,0,0,1,4.74,0,4.56,4.56,0,0,1,.92,3,4.7,4.7,0,0,1-.91,3,2.92,2.92,0,0,1-2.38,1.13,2.89,2.89,0,0,1-2.37-1.13,4.61,4.61,0,0,1-.92-3"/><path class="cls-2" d="M97,271.26a.82.82,0,0,0,.39.72,1.87,1.87,0,0,0,1,.28,1.85,1.85,0,0,0,1-.27.86.86,0,0,0,.4-.73.85.85,0,0,0-.39-.72,1.78,1.78,0,0,0-1-.28,1.91,1.91,0,0,0-1,.27.83.83,0,0,0-.39.73m-.22,3.47a1.1,1.1,0,0,0,.45.91,1.94,1.94,0,0,0,1.2.35,1.89,1.89,0,0,0,1.19-.35,1.11,1.11,0,0,0,.45-.91,1.14,1.14,0,0,0-.45-.91,2.27,2.27,0,0,0-2.39,0,1.09,1.09,0,0,0-.45.91m-.14-1.89a2.61,2.61,0,0,1-.88-.74,1.58,1.58,0,0,1-.26-.89,1.86,1.86,0,0,1,.81-1.56,3.44,3.44,0,0,1,2.12-.59,3.48,3.48,0,0,1,2.12.59,1.88,1.88,0,0,1,.79,1.56,1.77,1.77,0,0,1-.27.93,2.18,2.18,0,0,1-.84.7,2.73,2.73,0,0,1,1,.85,1.93,1.93,0,0,1,.31,1.11,2.21,2.21,0,0,1-.84,1.8,4.11,4.11,0,0,1-4.56,0,2.18,2.18,0,0,1-.86-1.8,2,2,0,0,1,.34-1.16,2.39,2.39,0,0,1,1-.8"/><path class="cls-2" d="M48.18,324.45v11.34a.7.7,0,0,0,.15.49,1.08,1.08,0,0,0,.54.29v.37h-4.2v-.37a1.28,1.28,0,0,0,.54-.26.79.79,0,0,0,.17-.52V324.45H42a.94.94,0,0,0-.53.16,1,1,0,0,0-.27.53h-.35v-3.77h.35a1.17,1.17,0,0,0,.27.55.94.94,0,0,0,.53.16h9.61a.64.64,0,0,0,.34-.07,1,1,0,0,0,.3-.27,1.59,1.59,0,0,0,.14-.37h.35v3.77h-.35a1.13,1.13,0,0,0-.26-.53.9.9,0,0,0-.53-.16Z"/><path class="cls-2" d="M62.18,318.05a1.24,1.24,0,0,1,.93.39,1.32,1.32,0,0,1,.39,1,1.26,1.26,0,0,1-.39.94,1.31,1.31,0,0,1-1,.4,1.35,1.35,0,0,1-1-.4,1.22,1.22,0,0,1-.39-.92,1.33,1.33,0,0,1,.39-1,1.35,1.35,0,0,1,1-.39m-3.87,0a1.25,1.25,0,0,1,.93.39,1.32,1.32,0,0,1,.39,1,1.26,1.26,0,0,1-.39.94,1.32,1.32,0,0,1-1,.4,1.37,1.37,0,0,1-1-.4,1.24,1.24,0,0,1-.38-.92,1.37,1.37,0,0,1,.38-1,1.34,1.34,0,0,1,1-.39m7.59,5.17v8.06a14.07,14.07,0,0,1-.11,2.07,4.84,4.84,0,0,1-.36,1.26A4.46,4.46,0,0,1,63,336.73a7.88,7.88,0,0,1-2.83.47,6.19,6.19,0,0,1-4.36-1.42,3.65,3.65,0,0,1-1.22-2.11,12.27,12.27,0,0,1-.17-2.39v-8.06a.76.76,0,0,0-.15-.5,1.27,1.27,0,0,0-.55-.27v-.37h4.19v.37a1.2,1.2,0,0,0-.52.26.78.78,0,0,0-.16.51v7.92a10.28,10.28,0,0,0,.1,1.83c.24,1.18,1.23,1.78,3,1.78,1.37,0,2.28-.36,2.72-1.08a2.31,2.31,0,0,0,.34-1.21c0-.34,0-.78,0-1.32v-7.92a.77.77,0,0,0-.16-.5,1.27,1.27,0,0,0-.55-.27v-.37h3.93v.37a1.13,1.13,0,0,0-.53.26.83.83,0,0,0-.16.51"/><path class="cls-2" d="M72,328.47h3.26a2.49,2.49,0,0,0,1.85-.55,2,2,0,0,0,.53-1.49,1.93,1.93,0,0,0-.53-1.45,2.59,2.59,0,0,0-1.85-.53H72Zm0,2.37v5a.83.83,0,0,0,.16.51,1,1,0,0,0,.52.25v.37H68.5v-.37a1.24,1.24,0,0,0,.53-.25.82.82,0,0,0,.17-.51V323.22a.66.66,0,0,0-.16-.49,1,1,0,0,0-.54-.28v-.37h6.66a7.24,7.24,0,0,1,3.14.51A3.81,3.81,0,0,1,80,324.43a4.88,4.88,0,0,1,.44,2.06,4,4,0,0,1-1.4,3.18,4.45,4.45,0,0,1-1.74.87l2.41,4.66a2.26,2.26,0,0,0,1.5,1.37v.37h-4.7v-.37c.4,0,.59-.14.59-.35a1.51,1.51,0,0,0-.2-.63l-2.43-4.75Z"/><path class="cls-2" d="M87.38,330.17l-1.22,1.32v4.31a.76.76,0,0,0,.17.51,1.08,1.08,0,0,0,.52.26v.37H82.66v-.37a1.13,1.13,0,0,0,.52-.26.76.76,0,0,0,.17-.51V323.22a.72.72,0,0,0-.15-.49,1.18,1.18,0,0,0-.54-.28v-.38h4.19v.38a1.09,1.09,0,0,0-.52.26.76.76,0,0,0-.17.51V328l4.15-4.52c.3-.31.44-.54.44-.68s-.19-.33-.58-.35v-.38H95v.38a1.64,1.64,0,0,0-.7.28c-.08,0-.51.49-1.31,1.33l-3.79,4.13L93.7,335a6.18,6.18,0,0,0,1,1.22,1.49,1.49,0,0,0,.75.34v.37H90.68v-.37c.34-.05.51-.19.51-.41a1.64,1.64,0,0,0-.33-.77Z"/><path class="cls-2" d="M98.78,318.05a1.27,1.27,0,0,1,.93.39,1.32,1.32,0,0,1,.39,1,1.26,1.26,0,0,1-.39.94,1.31,1.31,0,0,1-.95.4,1.35,1.35,0,0,1-1-.4,1.22,1.22,0,0,1-.39-.92,1.33,1.33,0,0,1,.39-1,1.35,1.35,0,0,1,1-.39m1.38,5.17V335.8a.83.83,0,0,0,.16.51,1.29,1.29,0,0,0,.53.26v.36H96.66v-.36a1.29,1.29,0,0,0,.53-.26.89.89,0,0,0,.17-.51V323.22a.77.77,0,0,0-.16-.5,1.28,1.28,0,0,0-.54-.27v-.37h4.19v.37a.91.91,0,0,0-.53.26.83.83,0,0,0-.16.51"/><path class="cls-2" d="M109.71,330.78v5a.66.66,0,0,0,.15.48,1.08,1.08,0,0,0,.54.29v.37h-4.2v-.37a1.23,1.23,0,0,0,.54-.26.83.83,0,0,0,.16-.51v-5l-4-7a5.83,5.83,0,0,0-.67-1.05,1,1,0,0,0-.56-.25v-.38h4.5v.38c-.4.08-.6.22-.6.4a1.9,1.9,0,0,0,.26.72l2.55,4.64,2.49-4.64a1.85,1.85,0,0,0,.27-.7c0-.19-.2-.34-.59-.42v-.38h4.34v.38a1,1,0,0,0-.61.3,7.33,7.33,0,0,0-.62,1Z"/><path class="cls-2" d="M119.25,330.42v4.14h6.46a.85.85,0,0,0,.53-.16,1.13,1.13,0,0,0,.26-.52h.35v3.75h-.35a1.08,1.08,0,0,0-.26-.52.81.81,0,0,0-.53-.17h-10v-.37a1.13,1.13,0,0,0,.53-.26.76.76,0,0,0,.17-.51V323.22a.75.75,0,0,0-.15-.5,1.22,1.22,0,0,0-.55-.27v-.37h9.73a.73.73,0,0,0,.5-.15,1.43,1.43,0,0,0,.29-.56h.35v3.77h-.35a1,1,0,0,0-.27-.53.86.86,0,0,0-.52-.16h-6.22v3.69h3.6a.79.79,0,0,0,.52-.15,1.21,1.21,0,0,0,.28-.55H124v3.67h-.35a1.23,1.23,0,0,0-.26-.53.84.84,0,0,0-.54-.16Z"/><path class="cls-2" d="M7.54,361.33H10a3.61,3.61,0,0,0,3.13-1.39,7.65,7.65,0,0,0,0-7.35A3.61,3.61,0,0,0,10,351.21H7.54Zm-2.81,1.22V350a.75.75,0,0,0-.15-.5,1.13,1.13,0,0,0-.54-.27v-.37h6.19a7,7,0,0,1,3.87.92c1.9,1.25,2.84,3.42,2.84,6.5a8.38,8.38,0,0,1-1.57,5.36,5,5,0,0,1-2.29,1.65,8.72,8.72,0,0,1-2.85.43H4v-.38a1.09,1.09,0,0,0,.53-.25.93.93,0,0,0,.16-.52"/><path class="cls-2" d="M20.94,344.81a1.25,1.25,0,0,1,.93.39,1.35,1.35,0,0,1-.95,2.3,1.35,1.35,0,0,1-1-.4,1.22,1.22,0,0,1-.39-.93,1.31,1.31,0,0,1,.39-1,1.35,1.35,0,0,1,1-.39M22.32,350v12.58a.83.83,0,0,0,.16.51,1.29,1.29,0,0,0,.53.26v.36H18.82v-.36a1.23,1.23,0,0,0,.53-.26.89.89,0,0,0,.17-.51V350a.77.77,0,0,0-.16-.5,1.13,1.13,0,0,0-.54-.27v-.37H23v.37a.91.91,0,0,0-.53.26.83.83,0,0,0-.16.51"/><path class="cls-2" d="M28.66,361.32h6.26a.81.81,0,0,0,.52-.16,1,1,0,0,0,.28-.52h.35v3.76h-.35a1,1,0,0,0-.28-.54.75.75,0,0,0-.52-.16H25.15v-.37a1.28,1.28,0,0,0,.54-.26.86.86,0,0,0,.16-.52V350a.7.7,0,0,0-.15-.49,1.17,1.17,0,0,0-.55-.29v-.36h4.2v.36a1.3,1.3,0,0,0-.53.26.86.86,0,0,0-.16.52Z"/><path class="cls-2" d="M52.33,351.5v.37a1.18,1.18,0,0,0-.65.35,2.84,2.84,0,0,0-.43.87l-3.15,9a2.66,2.66,0,0,0-.19.79.36.36,0,0,0,.2.34,2,2,0,0,0,.45.13v.37H44.13v-.37a2,2,0,0,0,.44-.13.36.36,0,0,0,.18-.34,2.6,2.6,0,0,0-.17-.79l-3.13-9a2.24,2.24,0,0,0-.49-.92,1.07,1.07,0,0,0-.6-.3v-.37h4.15v.37c-.48.06-.72.22-.72.49a5.15,5.15,0,0,0,.21.78l2.38,7.34,2.47-7.34a3.13,3.13,0,0,0,.18-.74c0-.29-.24-.46-.73-.53v-.37Z"/><path class="cls-2" d="M56.48,358.47v3.22h5.45a.8.8,0,0,0,.51-.14,1.16,1.16,0,0,0,.29-.56h.35v3.41h-.35a1.08,1.08,0,0,0-.27-.54.78.78,0,0,0-.53-.16H53.34v-.37a1.08,1.08,0,0,0,.52-.27.71.71,0,0,0,.17-.5v-10a.59.59,0,0,0-.16-.46,1,1,0,0,0-.53-.26v-.37h8.33a.81.81,0,0,0,.52-.15,1.13,1.13,0,0,0,.28-.54h.35v3.52h-.35a1.21,1.21,0,0,0-.28-.56.84.84,0,0,0-.52-.16H56.48v2.94h3a.71.71,0,0,0,.5-.15,1.17,1.17,0,0,0,.29-.55h.35v3.32H60.3a1.27,1.27,0,0,0-.27-.54.89.89,0,0,0-.52-.16Z"/><path class="cls-2" d="M72.43,357.18v4.14h6.46a.85.85,0,0,0,.53-.16,1.13,1.13,0,0,0,.26-.52H80v3.75h-.35a1.18,1.18,0,0,0-.26-.53.85.85,0,0,0-.53-.16h-10v-.38a1.23,1.23,0,0,0,.54-.26.78.78,0,0,0,.16-.51V350a.68.68,0,0,0-.16-.5,1.22,1.22,0,0,0-.54-.28v-.36h9.73a.73.73,0,0,0,.5-.15,1.16,1.16,0,0,0,.29-.56h.35v3.77h-.35a1.12,1.12,0,0,0-.27-.53.92.92,0,0,0-.52-.17H72.43v3.7H76a.79.79,0,0,0,.52-.15,1.17,1.17,0,0,0,.28-.55h.35v3.67h-.35a1.13,1.13,0,0,0-.26-.53.79.79,0,0,0-.54-.16Z"/><path class="cls-2" d="M85.38,361.33h2.43a3.61,3.61,0,0,0,3.13-1.39,7.58,7.58,0,0,0,0-7.35,3.61,3.61,0,0,0-3.13-1.38H85.38Zm-2.81,1.22V350a.75.75,0,0,0-.15-.5,1.17,1.17,0,0,0-.55-.27v-.37h6.2a7,7,0,0,1,3.87.92q2.84,1.88,2.84,6.5a8.38,8.38,0,0,1-1.57,5.36,5,5,0,0,1-2.29,1.65,8.72,8.72,0,0,1-2.85.43h-6.2v-.38a1,1,0,0,0,.54-.25.93.93,0,0,0,.16-.52"/><path class="cls-2" d="M100.16,357.18v4.14h6.46a.82.82,0,0,0,.53-.16,1.13,1.13,0,0,0,.27-.52h.34v3.75h-.34a1.18,1.18,0,0,0-.27-.53.85.85,0,0,0-.53-.16h-10v-.38a1.18,1.18,0,0,0,.53-.26.83.83,0,0,0,.17-.51V350a.73.73,0,0,0-.16-.5,1.28,1.28,0,0,0-.54-.28v-.36h9.72a.71.71,0,0,0,.5-.15,1.16,1.16,0,0,0,.29-.56h.35v3.77h-.35a1.13,1.13,0,0,0-.26-.53,1,1,0,0,0-.53-.17h-6.22v3.7h3.6a.79.79,0,0,0,.52-.15,1.08,1.08,0,0,0,.28-.55h.36v3.67h-.36a1.24,1.24,0,0,0-.25-.53.82.82,0,0,0-.55-.16Z"/><path class="cls-2" d="M113.11,361.33h3.28a3.43,3.43,0,0,0,2-.51,2,2,0,0,0,.72-1.7,2,2,0,0,0-.72-1.68,3.29,3.29,0,0,0-2-.51h-3.28Zm0-6.68h3a3.5,3.5,0,0,0,1.93-.39,1.53,1.53,0,0,0,.61-1.34,1.51,1.51,0,0,0-.61-1.32,3.5,3.5,0,0,0-1.93-.39h-3Zm6.13,1a3.56,3.56,0,0,1,2.83,3.74,4,4,0,0,1-3.16,4.1,9.83,9.83,0,0,1-2,.18H109.6v-.37a1.23,1.23,0,0,0,.54-.26.89.89,0,0,0,.16-.51V350a.75.75,0,0,0-.15-.5,1.33,1.33,0,0,0-.55-.27v-.38h7a7,7,0,0,1,2.76.42,3.34,3.34,0,0,1,2,3.33,3,3,0,0,1-.88,2.3,5,5,0,0,1-1.26.8"/><path class="cls-2" d="M126,344.81a1.23,1.23,0,0,1,.92.39,1.35,1.35,0,0,1,0,1.9,1.29,1.29,0,0,1-.94.4,1.33,1.33,0,0,1-1-.4,1.22,1.22,0,0,1-.39-.93,1.33,1.33,0,0,1,1.37-1.36m1.38,5.17v12.58a.83.83,0,0,0,.16.51,1.23,1.23,0,0,0,.53.26v.36h-4.2v-.36a1.35,1.35,0,0,0,.54-.26.83.83,0,0,0,.16-.51V350a.76.76,0,0,0-.15-.5,1.22,1.22,0,0,0-.55-.27v-.37h4.2v.37a.94.94,0,0,0-.53.26.83.83,0,0,0-.16.51"/><path class="cls-2" d="M136.91,357.53v5a.73.73,0,0,0,.14.49,1.17,1.17,0,0,0,.55.29v.37h-4.2v-.37a1.23,1.23,0,0,0,.54-.26.84.84,0,0,0,.16-.52v-5l-4-7a5.11,5.11,0,0,0-.66-1.05,1.07,1.07,0,0,0-.56-.25v-.38h4.5v.38c-.4.08-.6.22-.6.4a1.74,1.74,0,0,0,.26.72L135.6,355l2.48-4.63a1.76,1.76,0,0,0,.28-.7q0-.3-.6-.42v-.38h4.34v.38a1,1,0,0,0-.61.3,7.63,7.63,0,0,0-.61,1Z"/><path class="cls-3" d="M149.06,357.75l-1.75-5.38-1.77,5.38Zm.59,2.19h-4.79l-.7,2.06a3,3,0,0,0-.19.81c0,.22.2.39.61.52v.36h-4.05v-.36a1.18,1.18,0,0,0,.61-.35,3.65,3.65,0,0,0,.42-.93l4-11.63a3.07,3.07,0,0,0,.21-.77c0-.2-.21-.35-.62-.44v-.37h4.74v.37c-.4.08-.61.24-.61.44a2.94,2.94,0,0,0,.2.77l3.88,11.63a2.63,2.63,0,0,0,.49,1,1.16,1.16,0,0,0,.59.28v.36H150v-.36c.39-.13.61-.3.61-.52a3,3,0,0,0-.2-.81Z"/><path class="cls-3" d="M160.65,351.21v11.34a.7.7,0,0,0,.14.49,1.16,1.16,0,0,0,.54.29v.37h-4.19v-.37a1.23,1.23,0,0,0,.53-.26.79.79,0,0,0,.17-.52V351.21h-3.41a.94.94,0,0,0-.53.16,1,1,0,0,0-.26.53h-.36v-3.77h.36a1.22,1.22,0,0,0,.26.55,1,1,0,0,0,.53.16H164a.72.72,0,0,0,.34-.07.9.9,0,0,0,.3-.27,1.59,1.59,0,0,0,.14-.37h.36v3.77h-.36a1.13,1.13,0,0,0-.26-.53.81.81,0,0,0-.53-.16Z"/><path class="cls-2" d="M43.15,388.08h2.43a3.61,3.61,0,0,0,3.13-1.38,7.65,7.65,0,0,0,0-7.35A3.61,3.61,0,0,0,45.58,378H43.15Zm-2.81,1.23V376.73a.72.72,0,0,0-.15-.49,1.28,1.28,0,0,0-.54-.28v-.36h6.19a6.92,6.92,0,0,1,3.87.92q2.84,1.88,2.84,6.5A8.35,8.35,0,0,1,51,388.37,5,5,0,0,1,48.69,390a8.72,8.72,0,0,1-2.85.43H39.65v-.38a1.13,1.13,0,0,0,.53-.26.89.89,0,0,0,.16-.51"/><path class="cls-2" d="M57.93,383.93v4.15h6.46a.76.76,0,0,0,.53-.17,1.08,1.08,0,0,0,.27-.51h.34v3.75h-.34a1.12,1.12,0,0,0-.27-.53.85.85,0,0,0-.53-.17h-10v-.37a1.17,1.17,0,0,0,.54-.26.83.83,0,0,0,.17-.51V376.73a.72.72,0,0,0-.16-.49,1.17,1.17,0,0,0-.55-.28v-.36h9.73a.71.71,0,0,0,.5-.16,1.17,1.17,0,0,0,.29-.55h.35v3.77h-.35a1.13,1.13,0,0,0-.26-.53.89.89,0,0,0-.53-.17H57.93v3.7h3.6a.79.79,0,0,0,.52-.15,1.08,1.08,0,0,0,.28-.55h.36v3.67h-.36a1.23,1.23,0,0,0-.26-.54.88.88,0,0,0-.54-.16Z"/><path class="cls-2" d="M70.88,382h3.26a2.58,2.58,0,0,0,1.86-.55,2,2,0,0,0,.52-1.49A1.91,1.91,0,0,0,76,378.5a2.63,2.63,0,0,0-1.86-.53H70.88Zm0,2.37v5a.87.87,0,0,0,.16.51,1,1,0,0,0,.53.26v.36h-4.2v-.36a1.35,1.35,0,0,0,.54-.26.8.8,0,0,0,.16-.51V376.74a.7.7,0,0,0-.16-.5,1.13,1.13,0,0,0-.54-.27v-.38H74a7.16,7.16,0,0,1,3.13.52,3.85,3.85,0,0,1,1.73,1.83,4.91,4.91,0,0,1,.43,2.06,4,4,0,0,1-1.39,3.19,4.55,4.55,0,0,1-1.75.86l2.41,4.66a2.3,2.3,0,0,0,1.5,1.38v.36H75.4v-.36c.4,0,.6-.15.6-.35a1.52,1.52,0,0,0-.21-.63l-2.43-4.75Z"/><path class="cls-2" d="M84.76,380v9.35a.7.7,0,0,0,.15.49,1.21,1.21,0,0,0,.55.29v.37H81.53v-.37a1.29,1.29,0,0,0,.53-.26.85.85,0,0,0,.17-.52V376.74a.69.69,0,0,0-.16-.49,1.13,1.13,0,0,0-.54-.29v-.36h5V376c-.37.07-.56.21-.56.43a1.91,1.91,0,0,0,.3.77L91,385.24v-8.5a.73.73,0,0,0-.16-.5,1,1,0,0,0-.54-.28v-.36h3.93V376a1.18,1.18,0,0,0-.53.26.84.84,0,0,0-.16.52v12.57a.7.7,0,0,0,.14.49,1.21,1.21,0,0,0,.55.29v.37H89.68v-.37c.41-.06.62-.2.62-.42a1.62,1.62,0,0,0-.23-.59Z"/><path class="cls-2" d="M99.84,383.93v4.15h6.46a.78.78,0,0,0,.53-.17,1.18,1.18,0,0,0,.27-.51h.34v3.75h-.34a1.22,1.22,0,0,0-.27-.53.85.85,0,0,0-.53-.17h-10v-.37a1.17,1.17,0,0,0,.54-.26.78.78,0,0,0,.16-.51V376.73a.67.67,0,0,0-.16-.49,1.08,1.08,0,0,0-.54-.28v-.36h9.73a.73.73,0,0,0,.5-.16,1.17,1.17,0,0,0,.29-.55h.35v3.77h-.35a1,1,0,0,0-.27-.53.83.83,0,0,0-.52-.17H99.84v3.7h3.6a.79.79,0,0,0,.52-.15,1.08,1.08,0,0,0,.28-.55h.35v3.67h-.35a1.23,1.23,0,0,0-.26-.54.93.93,0,0,0-.54-.16Z"/><path class="cls-2" d="M113.26,371.56v-.27h2.17v.27c-.19,0-.28,0-.31,0s-.06.12-.06.26a1,1,0,0,0,.22.6,1.39,1.39,0,0,0,1.12.5,1.29,1.29,0,0,0,1.08-.5,1,1,0,0,0,.23-.61.42.42,0,0,0,0-.25.7.7,0,0,0-.33,0v-.27h2.18v.27a1.52,1.52,0,0,0-.25.05c-.05,0-.07.08-.08.2a2.84,2.84,0,0,1-.38,1.35,3,3,0,0,1-4.83,0,2.88,2.88,0,0,1-.38-1.35c0-.16-.11-.25-.33-.25m5.8,13.32h-2.33a1.45,1.45,0,0,0-.52.18,1.13,1.13,0,0,0-.28.53h-.35V382h.35a1.13,1.13,0,0,0,.28.54.77.77,0,0,0,.52.16h5.69V383a1.05,1.05,0,0,0-.52.27.71.71,0,0,0-.16.53v3.41a1,1,0,0,0,.16.58,1.22,1.22,0,0,0,.52.29v.24a9.9,9.9,0,0,1-6.21,2.4,6.68,6.68,0,0,1-5.34-2.28A8.08,8.08,0,0,1,109,383a7.72,7.72,0,0,1,2-5.41,6.84,6.84,0,0,1,5.25-2.25,7.25,7.25,0,0,1,3.77,1.06,4,4,0,0,0,1.22.57,1,1,0,0,0,.55-.29l.29.21-2.38,3.42-.29-.2a1.35,1.35,0,0,0,.17-.54,1.25,1.25,0,0,0-.59-.93,3.93,3.93,0,0,0-1.23-.61,4.82,4.82,0,0,0-1.49-.23,3.85,3.85,0,0,0-3.3,1.61,6,6,0,0,0-1,3.65,5.59,5.59,0,0,0,1.16,3.75,4.08,4.08,0,0,0,3.29,1.47,4.88,4.88,0,0,0,2.7-.8Z"/><path class="cls-2" d="M126.57,371.57a1.28,1.28,0,0,1,.93.38,1.34,1.34,0,0,1,.39,1,1.29,1.29,0,0,1-.39.94,1.31,1.31,0,0,1-1,.4,1.35,1.35,0,0,1-1-.4,1.23,1.23,0,0,1-.39-.92,1.34,1.34,0,0,1,.39-1,1.38,1.38,0,0,1,1-.38m1.38,5.17v12.57a.86.86,0,0,0,.16.52,1.3,1.3,0,0,0,.53.25v.37h-4.19v-.37a1.24,1.24,0,0,0,.53-.25.92.92,0,0,0,.17-.52V376.74a.75.75,0,0,0-.16-.5,1.13,1.13,0,0,0-.54-.27v-.37h4.19V376a.86.86,0,0,0-.53.26.83.83,0,0,0-.16.51"/></g></g></svg>