<svg xmlns="http://www.w3.org/2000/svg" viewBox="0 0 14.74 34.07"><defs><style>.cls-1{fill:#11100f;}.cls-2{fill:#e1b623;}.cls-3{fill:#e0b522;}</style></defs><g id="katman_2" data-name="katman 2"><g id="katman_1-2" data-name="katman 1"><path class="cls-1" d="M5.82,25.56v-11l.24.05V25.52Zm3.21,0v-11l.25-.06V25.61Zm-3.57-11,.25.06v11l-.25.06Zm3.1.15V25.5l-.24,0V14.68l-.12,0V25.45l-.24,0V14.72H7.85V25.42H7.6V14.74H7.49V25.4H7.25V14.74H7.13V25.42H6.89V14.73H6.78V25.44l-.25,0V14.7H6.42V25.48l-.24,0V14.65l.24,0h.11l.25,0H8l.24,0,.12,0Zm.11,0,.25-.05v11l-.25-.05Z"/><path class="cls-1" d="M10.65,14V24.81l-1.23.81V14.45a7.31,7.31,0,0,1-2,.29,7.43,7.43,0,0,1-2.06-.29V25.62l-1.22-.81V14a7.37,7.37,0,1,1,6.56,0M7.37,3.45a5.64,5.64,0,0,1,5.32,7.46A6.39,6.39,0,1,0,1,7.37a6.34,6.34,0,0,0,1.07,3.54A5.62,5.62,0,0,1,7.37,3.45m0,10.26A2.68,2.68,0,1,0,4.68,11a2.68,2.68,0,0,0,2.67,2.68m0-9.28a4.64,4.64,0,0,0-3.5,7.7A3.67,3.67,0,1,1,11,11a4,4,0,0,1-.16,1.1,4.65,4.65,0,0,0-3.5-7.7"/><path class="cls-2" d="M5.71,23.28v0a.05.05,0,0,0,0,0s0,0,0,0V22.4H5.48l0,0h0v-.27h0s0,0,0,0h.73l0,0s0,0,0,0h0v.27h0s0,0,0,0H6v.79s0,0,0,0H6v0Z"/><path class="cls-2" d="M6.63,23.11h.1A.36.36,0,0,0,7,23a.43.43,0,0,0,.08-.28A.38.38,0,0,0,7,22.47a.37.37,0,0,0-.26-.08H6.63Zm-.25.17v0s0,0,0,0,0,0,0,0v-.88s0,0,0,0l0,0v0H7a.26.26,0,0,1,.12.05.35.35,0,0,1,.16.18.6.6,0,0,1,.06.27.56.56,0,0,1-.14.41.61.61,0,0,1-.41.13Z"/><path class="cls-2" d="M7.46,23.28v0s0,0,0,0,0,0,0,0v-.88s0,0,0,0l0,0v0h.73s0,0,0,0h0v.27h0l0,0H7.71v.26H8s0,0,0,0h0v.27H8s0,0,0,0h-.3v.29h.5l0,0h0v.27h0l0,0H7.46Z"/><path class="cls-2" d="M8.63,23.11h.1c.14,0,.23,0,.28-.08a.38.38,0,0,0,.09-.28A.43.43,0,0,0,9,22.47a.41.41,0,0,0-.27-.08H8.63Zm-.25.17v0l0,0s0,0,0,0v-.88s0,0,0,0l0,0v0H9a.29.29,0,0,1,.13.05.4.4,0,0,1,.16.18.76.76,0,0,1,.05.27.53.53,0,0,1-.14.41.58.58,0,0,1-.4.13Z"/><path class="cls-2" d="M5.91,24.16a.41.41,0,0,1,0-.16.58.58,0,0,1,.13-.15l.09-.07c.09-.05.13-.1.13-.14a.08.08,0,0,0,0-.07.11.11,0,0,0-.08,0,.21.21,0,0,0-.11,0,.08.08,0,0,0-.05.07H6l-.12-.12h0l0,0,0,0,.09-.05.11,0a.19.19,0,0,1,.15.06.17.17,0,0,1,.06.14q0,.12-.18.24l0,0-.05,0,0,0,0,.05h.35l0,0h0v.17h0v0H5.94l0,0Z"/><path class="cls-2" d="M6.82,23.79a.35.35,0,0,0,0,.18.13.13,0,0,0,.22,0,.42.42,0,0,0,0-.36.13.13,0,0,0-.22,0,.35.35,0,0,0,0,.18m-.13,0a.45.45,0,0,1,.08-.26.28.28,0,0,1,.21-.1.3.3,0,0,1,.21.1.46.46,0,0,1,0,.52.27.27,0,0,1-.42,0,.4.4,0,0,1-.08-.26"/><path class="cls-2" d="M7.62,23.79a.34.34,0,0,0,0,.18.14.14,0,0,0,.12.06A.14.14,0,0,0,7.89,24a.42.42,0,0,0,0-.36.14.14,0,0,0-.11-.06.14.14,0,0,0-.12.06.34.34,0,0,0,0,.18m-.13,0a.45.45,0,0,1,.08-.26.27.27,0,0,1,.21-.1.26.26,0,0,1,.2.1.46.46,0,0,1,0,.52.23.23,0,0,1-.2.1.24.24,0,0,1-.21-.1.4.4,0,0,1-.08-.26"/><path class="cls-2" d="M8.45,23.62a.09.09,0,0,0,0,.07l.09,0,.09,0a.1.1,0,0,0,0-.07s0,0,0-.06l-.09,0-.09,0a.09.09,0,0,0,0,.06m0,.31a.09.09,0,0,0,0,.08.15.15,0,0,0,.1,0,.13.13,0,0,0,.1,0,.09.09,0,0,0,0-.08.08.08,0,0,0,0-.08.18.18,0,0,0-.2,0,.08.08,0,0,0,0,.08m0-.17a.18.18,0,0,1-.08-.06.11.11,0,0,1,0-.08.16.16,0,0,1,.07-.14.3.3,0,0,1,.18-.05.36.36,0,0,1,.19.05.18.18,0,0,1,.06.14.11.11,0,0,1,0,.08.13.13,0,0,1-.07.06.24.24,0,0,1,.09.08.24.24,0,0,1,0,.09.19.19,0,0,1-.07.16.36.36,0,0,1-.4,0,.19.19,0,0,1-.07-.16.17.17,0,0,1,0-.1.22.22,0,0,1,.09-.07"/><path class="cls-2" d="M4.2,28.26v1a.07.07,0,0,0,0,.05.06.06,0,0,0,0,0v0H3.89v0l0,0s0,0,0-.05v-1H3.61a.06.06,0,0,0,0,.05h0V28h0a.08.08,0,0,0,0,.05h.88s0,0,0,0l0,0s0,0,0,0h0v.33h0s0,0,0-.05H4.2Z"/><path class="cls-2" d="M5.42,27.7a.13.13,0,0,1,.08,0,.14.14,0,0,1,0,.09.11.11,0,0,1,0,.08.14.14,0,0,1-.09,0,.1.1,0,0,1-.11-.11.14.14,0,0,1,0-.09.12.12,0,0,1,.09,0m-.34,0a.11.11,0,0,1,.08,0,.14.14,0,0,1,0,.09.1.1,0,0,1-.11.11.14.14,0,0,1-.09,0,.11.11,0,0,1,0-.08.11.11,0,0,1,.12-.12m.66.45v.7a.87.87,0,0,1,0,.18.81.81,0,0,1,0,.11.41.41,0,0,1-.22.19.86.86,0,0,1-.24,0,.5.5,0,0,1-.38-.13.29.29,0,0,1-.11-.18,1.22,1.22,0,0,1,0-.21v-.7a.05.05,0,0,0,0,0l0,0v0H5v0l0,0s0,0,0,0v.69A.62.62,0,0,0,5,29c0,.1.11.15.26.15a.27.27,0,0,0,.24-.09.81.81,0,0,0,0-.11v-.8a.05.05,0,0,0,0,0l0,0v0H5.8v0l0,0a.1.1,0,0,0,0,0"/><path class="cls-2" d="M6.27,28.61h.29a.23.23,0,0,0,.16-.05.23.23,0,0,0,0-.26.24.24,0,0,0-.16,0H6.27Zm0,.2v.44a.05.05,0,0,0,0,0s0,0,0,0v0H6v0a.05.05,0,0,0,0,0s0,0,0,0v-1.1a.05.05,0,0,0,0,0l0,0v0h.58a.85.85,0,0,1,.27,0,.33.33,0,0,1,.15.16.58.58,0,0,1,0,.18.35.35,0,0,1-.12.28.34.34,0,0,1-.16.08l.21.4c0,.07.08.11.13.12v0h-.4v0s0,0,0,0a.17.17,0,0,0,0-.05l-.21-.42Z"/><path class="cls-2" d="M7.61,28.75l-.11.12v.38s0,0,0,0l0,0v0H7.2v0s0,0,0,0a.05.05,0,0,0,0,0v-1.1s0,0,0,0l0,0v0h.36v0l0,0s0,0,0,0v.42l.37-.4s0,0,0-.06,0,0-.05,0v0h.43v0s0,0-.06,0l-.12.11-.33.36.39.6.08.1a.11.11,0,0,0,.07,0v0H7.9v0s0,0,0,0a.13.13,0,0,0,0-.07Z"/><path class="cls-2" d="M8.6,27.7a.11.11,0,0,1,.08,0,.11.11,0,0,1,0,.09.09.09,0,0,1,0,.08.12.12,0,0,1-.16,0,.09.09,0,0,1,0-.08.11.11,0,0,1,0-.09.11.11,0,0,1,.08,0m.12.45v1.1a.07.07,0,0,0,.06.06v0H8.42v0s0,0,0,0a.05.05,0,0,0,0,0v-1.1s0,0,0,0l-.05,0v0h.36v0s0,0,0,0,0,0,0,0"/><path class="cls-2" d="M9.55,28.81v.43a.08.08,0,0,0,0,.05.05.05,0,0,0,0,0v0H9.25v0l.05,0a.2.2,0,0,0,0-.05v-.43L9,28.2l-.05-.1-.05,0v0h.39v0s-.05,0-.05,0a.1.1,0,0,0,0,.06l.22.4.22-.4,0-.06s0,0,0,0v0H10v0l-.06,0,0,.09Z"/><path class="cls-2" d="M10.39,28.78v.36H11s0,0,0,0,0,0,0,0h0v.32h0l0,0,0,0h-.87v0l.05,0a.2.2,0,0,0,0-.05V28.15s0,0,0,0l-.05,0v0H11L11,28h0v.33h0a.11.11,0,0,0,0-.05h-.58v.32h.35l0-.05h0v.32h0s0,0,0-.05h-.36Z"/><path class="cls-2" d="M.66,31.47H.87a.32.32,0,0,0,.27-.12A.53.53,0,0,0,1.22,31a.51.51,0,0,0-.08-.32.32.32,0,0,0-.27-.12H.66Zm-.25.11v-1.1s0,0,0,0l-.05,0v0H.89a.66.66,0,0,1,.34.08.65.65,0,0,1,.25.57.72.72,0,0,1-.14.46.48.48,0,0,1-.2.15.87.87,0,0,1-.25,0H.35v0l.05,0s0,0,0,0"/><path class="cls-2" d="M1.82,30a.1.1,0,0,1,.08,0,.11.11,0,0,1,0,.09.09.09,0,0,1,0,.08.12.12,0,0,1-.16,0,.12.12,0,0,1,0-.08.15.15,0,0,1,0-.09.11.11,0,0,1,.08,0m.12.45v1.1l0,0,0,0v0H1.64v0l.05,0s0,0,0,0v-1.1s0,0,0,0l-.05,0v0H2v0l0,0s0,0,0,0"/><path class="cls-2" d="M2.5,31.47H3l0,0s0,0,0,0h0v.33h0s0,0,0,0l0,0H2.19v0l.05,0s0,0,0,0v-1.1s0,0,0,0l-.05,0v0h.37v0l-.05,0s0,0,0,0Z"/><path class="cls-2" d="M4.56,30.61v0a.09.09,0,0,0-.06,0l0,.07-.27.78a.41.41,0,0,0,0,.07s0,0,0,0h0v0H3.84v0s0,0,0,0,0,0,0,0a.41.41,0,0,0,0-.07l-.27-.78a.19.19,0,0,0,0-.08l0,0v0h.36v0s-.07,0-.07.05l0,.07.21.63.21-.63,0-.07s0,0-.06-.05v0Z"/><path class="cls-2" d="M4.92,31.22v.28h.52a.08.08,0,0,0,0,0h0v.3h0a.06.06,0,0,0,0,0l-.05,0H4.65v0l0,0,0,0v-.87a.07.07,0,0,0-.06-.06v0h.77s0,0,0-.05h0v.31h0s0,0,0-.05h-.5v.25h.31a.08.08,0,0,0,0-.05h0v.29h0a.08.08,0,0,0,0-.05H4.92Z"/><path class="cls-2" d="M6.31,31.11v.36h.56l0,0s0,0,0,0H7v.33h0s0,0,0,0l0,0H6v0a.06.06,0,0,0,0,0s0,0,0,0v-1.1s0,0,0,0l0,0v0h.89l0-.05H7v.33h0l0,0H6.31v.32h.36s0,0,0,0h0v.32h0s0,0,0-.05H6.31Z"/><path class="cls-2" d="M7.44,31.47h.21a.32.32,0,0,0,.27-.12A.61.61,0,0,0,8,31a.58.58,0,0,0-.08-.32.32.32,0,0,0-.27-.12H7.44Zm-.25.11v-1.1s0,0,0,0l0,0v0h.54a.66.66,0,0,1,.34.08.64.64,0,0,1,.24.57.72.72,0,0,1-.13.46.55.55,0,0,1-.2.15.93.93,0,0,1-.25,0H7.13v0l0,0s0,0,0,0"/><path class="cls-2" d="M8.72,31.11v.36h.57a.05.05,0,0,0,0,0s0,0,0,0h0v.33h0a.11.11,0,0,0,0,0l0,0H8.42v0l0,0a.05.05,0,0,0,0,0v-1.1s0,0,0,0l-.05,0v0h.89a.08.08,0,0,0,0-.05h0v.33h0a.06.06,0,0,0,0,0H8.72v.32h.36l0,0h0v.32h0a.11.11,0,0,0,0-.05s0,0,0,0Z"/><path class="cls-2" d="M9.85,31.47h.29a.25.25,0,0,0,.17,0,.15.15,0,0,0,.07-.14.16.16,0,0,0-.07-.15.25.25,0,0,0-.17,0H9.85Zm0-.58h.26a.25.25,0,0,0,.17,0s.05-.06.05-.11a.12.12,0,0,0-.05-.12.34.34,0,0,0-.17,0H9.85Zm.53.09a.3.3,0,0,1,.15.07.3.3,0,0,1,.1.25.35.35,0,0,1-.13.3.42.42,0,0,1-.14.06l-.18,0H9.54v0a.06.06,0,0,0,.05,0l0,0v-1.1a.05.05,0,0,0,0,0l-.05,0v0h.62a.55.55,0,0,1,.24,0,.29.29,0,0,1,.17.29.24.24,0,0,1-.08.2l-.11.07"/><path class="cls-2" d="M11,30a.11.11,0,0,1,.08,0,.15.15,0,0,1,0,.09.12.12,0,0,1,0,.08.12.12,0,0,1-.16,0,.09.09,0,0,1,0-.08.11.11,0,0,1,0-.09A.11.11,0,0,1,11,30m.12.45v1.1a.05.05,0,0,0,0,0l0,0v0h-.36v0a.07.07,0,0,0,.06-.06v-1.1a.05.05,0,0,0,0,0l0,0v0h.36v0l0,0s0,0,0,0"/><path class="cls-2" d="M11.92,31.14v.44a.08.08,0,0,0,0,0l0,0v0h-.36v0s0,0,0,0a.05.05,0,0,0,0,0v-.44l-.35-.61a.29.29,0,0,0-.06-.1l0,0v0h.4v0s-.06,0-.06,0a.15.15,0,0,0,0,.06l.22.4.22-.4a.39.39,0,0,0,0-.06s0,0-.05,0v0h.38v0l-.06,0a.31.31,0,0,0-.05.09Z"/><path class="cls-3" d="M13,31.16l-.15-.47-.15.47Zm0,.19h-.41l-.06.18a.11.11,0,0,0,0,.07s0,0,.05,0v0h-.35v0a.05.05,0,0,0,0,0,.56.56,0,0,0,0-.08l.34-1a.14.14,0,0,0,0-.07s0,0,0,0v0h.41v0s-.05,0-.05,0a.12.12,0,0,0,0,.07l.33,1s0,.08.05.09a.06.06,0,0,0,0,0v0h-.39v0s0,0,0,0a.11.11,0,0,0,0-.07Z"/><path class="cls-3" d="M14,30.59v1a.06.06,0,0,0,0,0l.05,0v0h-.36v0a.05.05,0,0,0,0,0l0,0v-1H13.4s0,0,0,0h0v-.33h0s0,0,0,.05h.92a0,0,0,0,0,0,0,0,0,0,0,0,0,0h0v.33h0a.06.06,0,0,0,0,0H14Z"/><path class="cls-2" d="M3.76,33.8H4a.32.32,0,0,0,.27-.12.53.53,0,0,0,.08-.32A.51.51,0,0,0,4.24,33,.32.32,0,0,0,4,32.92H3.76Zm-.25.11v-1.1s0,0,0,0l0,0v0H4a.63.63,0,0,1,.34.08.65.65,0,0,1,.25.57.72.72,0,0,1-.14.46.48.48,0,0,1-.2.15A.87.87,0,0,1,4,34H3.45v0l0,0s0,0,0,0"/><path class="cls-2" d="M5.05,33.44v.36h.56l0,0s0,0,0,0h0v.33h0a.11.11,0,0,0,0,0s0,0,0,0H4.74v0l0,0s0,0,0,0v-1.1s0,0,0,0l0,0v0h.89l0-.05h0V33h0l0,0H5.05v.32H5.4l0,0h0v.32h0l0,0H5.05Z"/><path class="cls-2" d="M6.17,33.27h.29a.23.23,0,0,0,.16-.05.17.17,0,0,0,0-.13.18.18,0,0,0,0-.13.24.24,0,0,0-.16,0H6.17Zm0,.2v.44l0,0,0,0v0H5.87v0l0,0a.05.05,0,0,0,0,0v-1.1a.05.05,0,0,0,0,0s0,0,0,0v0h.58a.62.62,0,0,1,.27,0,.26.26,0,0,1,.15.16.33.33,0,0,1,0,.17.35.35,0,0,1-.12.28.36.36,0,0,1-.15.08l.21.4A.19.19,0,0,0,7,34v0H6.57v0s0,0,0,0l0,0-.21-.42Z"/><path class="cls-2" d="M7.38,33.09v.82s0,0,0,0l.05,0v0H7.1v0l.05,0s0,0,0,0v-1.1s0,0,0,0l-.05,0v0h.43v0s0,0,0,0a.12.12,0,0,0,0,.07l.41.7v-.74s0,0,0,0l0,0v0H8.2v0l0,0s0,0,0,0v1.1a.08.08,0,0,0,0,0l0,0v0H7.81v0s.05,0,.05,0a.06.06,0,0,0,0,0Z"/><path class="cls-2" d="M8.7,33.44v.36h.56l0,0s0,0,0,0h0v.33h0a.11.11,0,0,0,0,0s0,0,0,0H8.39v0l0,0s0,0,0,0v-1.1s0,0,0,0l0,0v0h.89l0-.05h0V33h0l0,0H8.7v.32h.35l0,0h0v.32h0l0,0H8.7Z"/><path class="cls-2" d="M9.86,32.36v0h.19v0h0s0,0,0,0l0,0a.12.12,0,0,0,.1,0,.1.1,0,0,0,.09,0,.14.14,0,0,0,0-.06v0h0v0h.19v0h0s0,0,0,0a.24.24,0,0,1,0,.12.25.25,0,0,1-.21.11.22.22,0,0,1-.21-.11.34.34,0,0,1,0-.12s0,0,0,0m.51,1.16h-.2l-.05,0s0,0,0,0h0v-.32h0a.06.06,0,0,0,0,.05l.05,0h.49v0l0,0a.06.06,0,0,0,0,0v.29a.06.06,0,0,0,0,.05l0,0v0a.84.84,0,0,1-.54.21.57.57,0,0,1-.46-.2.7.7,0,0,1-.17-.47.68.68,0,0,1,.18-.48.58.58,0,0,1,.45-.19.63.63,0,0,1,.33.09l.11,0,0,0h0l-.21.3,0,0a.08.08,0,0,0,0,0,.08.08,0,0,0-.05-.08.29.29,0,0,0-.11-.06l-.13,0a.34.34,0,0,0-.28.14.53.53,0,0,0-.09.32.48.48,0,0,0,.1.33.35.35,0,0,0,.28.12.4.4,0,0,0,.24-.07Z"/><path class="cls-2" d="M11,32.36a.11.11,0,0,1,.08,0,.12.12,0,0,1,0,.09.09.09,0,0,1,0,.08.12.12,0,0,1-.16,0,.12.12,0,0,1,0-.08.18.18,0,0,1,0-.09.11.11,0,0,1,.08,0m.12.45v1.1l0,0,0,0v0h-.36v0l0,0a.05.05,0,0,0,0,0v-1.1s0,0,0,0l-.05,0v0h.36v0l0,0s0,0,0,0"/></g></g></svg>