<svg xmlns="http://www.w3.org/2000/svg" viewBox="0 0 127.09 36.98"><defs><style>.cls-1{fill:#e1b623;}</style></defs><g id="katman_2" data-name="katman 2"><g id="katman_1-2" data-name="katman 1"><path class="cls-1" d="M123.94,19.66v-.37c0-.7,0-1.21,0-1.54s0-.85-.07-1.42a3.75,3.75,0,0,0-.3-1.34,3.14,3.14,0,0,0-2.92-2.15,7,7,0,0,0-4.46,1.07,10.43,10.43,0,0,0-3,2.76,3.45,3.45,0,0,1,2.52-1.24,2.42,2.42,0,0,1,2.23.77,2.56,2.56,0,0,1,.22.44A23.61,23.61,0,0,1,118.5,22V25c0,2.93-1.9,3.53-2.78,3.6s-2.81-.67-2.81-3.6V12.53l-7.5,3.77c1.35-.37,2,.13,2,1.51V25c0,3.63-2.78,3.67-3.11,3.63h22.74a3.41,3.41,0,0,1-2.16-.77,4.14,4.14,0,0,1-1-2.86ZM95,26.45c0,1.65,1.76,2.76,4.06,2.76,2.6,0,4.17-1.34,4.68-4.07l-.18.44a2.33,2.33,0,0,1-1.72,1.48c-.88-.17-1.32-1-1.32-2.39V17.31c.3-4.51-5.52-5.15-8.59-4.61a9.07,9.07,0,0,0-5.26,2.49,4.1,4.1,0,0,0-1.28,2.86,2.27,2.27,0,0,0,2.52,2.49,2.39,2.39,0,0,0,2.6-2.22,15.5,15.5,0,0,1-.73-2.49c.14-2.56.76-2.72,1.93-2.89,2.45-.41,3.29,1.17,3.29,4.5v1.89a56.32,56.32,0,0,0-6.9,2c-2.27.9-3.4,2.18-3.44,3.83a4.24,4.24,0,0,0,1,2.79A4.1,4.1,0,0,0,89,29.14a6.69,6.69,0,0,0,4.16-1.75c.37-.37.81-.87,1.36-1.51l.25-.3a3.15,3.15,0,0,1-3.54.77,2.52,2.52,0,0,1-1.43-2.59,3,3,0,0,1,1.1-2.42,12.11,12.11,0,0,1,4-1.71Zm-19.3-3.63c-.87.57-2.45.3-3.8-2.82a11.79,11.79,0,0,1-.69-4.31c0-1.44.4-2.35,1.09-2.69s2.34-.3,3.48,3.1c1.09,3.8,1.06,6-.08,6.72m3.48-8.77a5.37,5.37,0,0,0-1.32-.78,8.4,8.4,0,0,0-3.4-.7,10.83,10.83,0,0,0-3.58.43c-3,.85-4.5,2.49-4.53,4.88A4.9,4.9,0,0,0,69.88,23,.15.15,0,0,1,70,23s0,0,.07,0c-2.7,1.11-3.94,2.29-3.76,3.57s1.13,2.18,2.85,2.59a23.07,23.07,0,0,0,5.81.57,9,9,0,0,1,4.75,1c1.25.7,1.58,1.61,1,2.65-.73.84-3.36,1.11-6.33.61-4.64-.78-7.16-2-6.83-5.15l-.55.31a3.77,3.77,0,0,0-1.64,3.12c0,2.42,2.77,4.24,7.31,4.64a10.69,10.69,0,0,0,7.23-2.22,5.64,5.64,0,0,0,2-5.14c-.11-2.42-2.3-3.77-6.62-4.07C73.21,25.38,71,25.75,70,25c-.77-.53-.66-1.44.4-1.85a11.21,11.21,0,0,0,5.89,0,6.48,6.48,0,0,0,4.42-3.26,3.93,3.93,0,0,0,.22-3,5.11,5.11,0,0,0-1.79-2.75l0,0Zm3.94-2.15a5.45,5.45,0,0,0-3.94,2.15c1.64-1.25,2.37-.78,3.1-.17,1.21.44,2,.1,2.23-.57s-.33-1.41-1.39-1.41m-7.75-1a3.06,3.06,0,0,0,2.53-1.14,4.23,4.23,0,0,0,1-2.56c-.29,1.31-1.49,2-3.58,2-1.79,0-3.36-.68-3.65-2a3.62,3.62,0,0,0,3.72,3.73M56.72,26.45c0,1.65,1.76,2.76,4.06,2.76,2.6,0,4.17-1.34,4.68-4.07l-.18.44a2.33,2.33,0,0,1-1.72,1.48c-.88-.17-1.32-1-1.32-2.39V17.31c.29-4.51-5.52-5.15-8.59-4.61a9,9,0,0,0-5.26,2.49,4.1,4.1,0,0,0-1.28,2.86,2.26,2.26,0,0,0,2.52,2.49,2.39,2.39,0,0,0,2.6-2.22,15.5,15.5,0,0,1-.73-2.49c.14-2.56.76-2.72,1.93-2.89,2.45-.41,3.29,1.17,3.29,4.5v1.89a57.26,57.26,0,0,0-6.91,2q-3.39,1.35-3.43,3.83a4.24,4.24,0,0,0,1,2.79,4.09,4.09,0,0,0,3.36,1.24,6.69,6.69,0,0,0,4.17-1.75c.37-.37.81-.87,1.35-1.51l.26-.3a3.17,3.17,0,0,1-3.55.77,2.51,2.51,0,0,1-1.42-2.59,3,3,0,0,1,1.09-2.42,12.29,12.29,0,0,1,4.06-1.71ZM40.85,1.83,32.45,6c.48-.15,2.41-.67,2.41,2.59v16a3.54,3.54,0,0,1-2.73,3.74,4.39,4.39,0,0,1-1.65.25H45.27a4.59,4.59,0,0,1-1.68-.25,4.39,4.39,0,0,1-1.29-.6,3.72,3.72,0,0,1-1.45-3.14ZM21.51,13.15c1.58,9.48.57,15.33-3.25,15-2.06-.16-3.86-1.57-5.48-4.24a27.42,27.42,0,0,1-3.42-9.56,24.71,24.71,0,0,1-.22-9.28c.53-2.54,1.54-4,3-4.39A4.54,4.54,0,0,1,16.38,2a12.82,12.82,0,0,1,3.24,4.76,27.26,27.26,0,0,1,1.89,6.41M16.33,0A17,17,0,0,0,4.62,3.91,13.18,13.18,0,0,0,0,14.2,14.59,14.59,0,0,0,3.39,24,15.5,15.5,0,0,0,15,29c5.27,0,9.65-1.78,12.16-4.56A15.32,15.32,0,0,0,31,14.48a15.05,15.05,0,0,0-3.33-10C25.41,1.78,21.38,0,16.33,0"/><path class="cls-1" d="M96.46,6V5.13H94.39V4.27h1.9V3.48h-1.9V2.72h2V1.91h-3V6ZM85.4,6V4.44L87,1.91H86l-1,1.68-1-1.68H82.82l1.62,2.53V6ZM75.23,3.09l.64,1.47H74.59ZM74,6l.29-.68h1.83l.3.68h1l-1.81-4H74.8L73,6Zm.87-4.4.34-.31.33.31h.85L75.5.85H75l-.91.7ZM64.33,6V4.85l.5-.52L66.08,6h1.14L65.49,3.7l1.68-1.79H66l-1.69,1.8V1.91h-1V6Zm-7.77-4h-1V6h1Zm-.49-.26a.44.44,0,0,0,.47-.41.47.47,0,0,0-.93,0,.44.44,0,0,0,.46.41M45.92,6V4.22h1.9V6h1v-4h-1v1.5h-1.9V1.91H45V6Z"/></g></g></svg>